<?xml version="1.0" standalone="no"?><svg xmlns="http://www.w3.org/2000/svg" viewBox="0 0 1440 320"><path fill="#20262B" fill-opacity="1" d="M0,128L34.3,154.7C68.6,181,137,235,206,261.3C274.3,288,343,288,411,261.3C480,235,549,181,617,149.3C685.7,117,754,107,823,106.7C891.4,107,960,117,1029,128C1097.1,139,1166,149,1234,154.7C1302.9,160,1371,160,1406,160L1440,160L1440,0L1405.7,0C1371.4,0,1303,0,1234,0C1165.7,0,1097,0,1029,0C960,0,891,0,823,0C754.3,0,686,0,617,0C548.6,0,480,0,411,0C342.9,0,274,0,206,0C137.1,0,69,0,34,0L0,0Z"></path></svg>